<svg width="104" height="20" viewBox="0 0 104 20" fill="none" xmlns="http://www.w3.org/2000/svg">
<g id="logo-title-dBUiyUSk 2" clip-path="url(#clip0_11692_11324)">
<path id="Vector" fill-rule="evenodd" clip-rule="evenodd" d="M35.7083 3.28924H48.1029C48.246 3.28924 48.3175 3.19981 48.3175 3.02096V1.33078C48.3175 1.15193 48.246 1.0625 48.1029 1.0625H33.7766C33.6157 1.0625 33.5352 1.15193 33.5352 1.33078V17.8033C33.5352 17.9643 33.6157 18.0448 33.7766 18.0448H35.4668C35.6278 18.0448 35.7083 17.9643 35.7083 17.8033V10.4255H35.7215V8.1988H35.7083V3.28924ZM38.5764 8.1988V10.4255H47.7005C47.8436 10.4255 47.9151 10.3361 47.9151 10.1573V8.46708C47.9151 8.28823 47.8436 8.1988 47.7005 8.1988H38.5764Z" fill="black"/>
<path id="Vector_2" d="M35.7083 3.28924V3.03924H35.4583V3.28924H35.7083ZM35.7083 10.4255V10.1755H35.4583V10.4255H35.7083ZM35.7215 10.4255V10.6755H35.9715V10.4255H35.7215ZM35.7215 8.1988H35.9715V7.9488H35.7215V8.1988ZM35.7083 8.1988H35.4583V8.4488H35.7083V8.1988ZM38.5764 8.1988V7.9488H38.3264V8.1988H38.5764ZM38.5764 10.4255H38.3264V10.6755H38.5764V10.4255ZM48.1029 3.03924H35.7083V3.53924H48.1029V3.03924ZM48.0675 3.02096C48.0675 3.04982 48.0645 3.06642 48.0625 3.07392C48.0607 3.08094 48.0608 3.07579 48.0686 3.066C48.0725 3.06112 48.0776 3.05608 48.0837 3.05151C48.0898 3.04696 48.0957 3.04378 48.1006 3.0417C48.1104 3.03762 48.1131 3.03924 48.1029 3.03924V3.53924C48.2296 3.53924 48.3642 3.49688 48.4591 3.37835C48.5454 3.27046 48.5675 3.1371 48.5675 3.02096H48.0675ZM48.0675 1.33078V3.02096H48.5675V1.33078H48.0675ZM48.1029 1.3125C48.1131 1.3125 48.1104 1.31412 48.1006 1.31004C48.0957 1.30796 48.0898 1.30478 48.0837 1.30023C48.0776 1.29566 48.0725 1.29062 48.0686 1.28574C48.0608 1.27595 48.0607 1.27081 48.0625 1.27782C48.0645 1.28532 48.0675 1.30192 48.0675 1.33078H48.5675C48.5675 1.21464 48.5454 1.08128 48.4591 0.973396C48.3642 0.854863 48.2296 0.8125 48.1029 0.8125V1.3125ZM33.7766 1.3125H48.1029V0.8125H33.7766V1.3125ZM33.7852 1.33078C33.7852 1.30402 33.7883 1.29006 33.7897 1.28525C33.7909 1.28131 33.7897 1.28757 33.7814 1.29681C33.7774 1.30122 33.7729 1.30511 33.7682 1.30824C33.7635 1.31133 33.7598 1.31297 33.7578 1.3137C33.7542 1.31503 33.7589 1.3125 33.7766 1.3125V0.8125C33.6504 0.8125 33.5119 0.848771 33.4097 0.962328C33.312 1.07088 33.2852 1.20894 33.2852 1.33078H33.7852ZM33.7852 17.8033V1.33078H33.2852V17.8033H33.7852ZM33.7766 17.7948C33.7565 17.7948 33.749 17.7922 33.75 17.7925C33.7508 17.7927 33.7538 17.7938 33.7581 17.7964C33.7625 17.7991 33.7675 17.8028 33.7723 17.8076C33.7771 17.8124 33.7809 17.8174 33.7835 17.8218C33.7861 17.8261 33.7872 17.8291 33.7874 17.8299C33.7878 17.8309 33.7852 17.8235 33.7852 17.8033H33.2852C33.2852 17.9223 33.3151 18.0575 33.4188 18.1612C33.5224 18.2648 33.6576 18.2948 33.7766 18.2948V17.7948ZM35.4668 17.7948H33.7766V18.2948H35.4668V17.7948ZM35.4583 17.8033C35.4583 17.8235 35.4556 17.8309 35.456 17.8299C35.4562 17.8291 35.4573 17.8261 35.4599 17.8218C35.4626 17.8174 35.4663 17.8125 35.4711 17.8076C35.4759 17.8028 35.4809 17.7991 35.4853 17.7964C35.4896 17.7938 35.4926 17.7927 35.4934 17.7925C35.4944 17.7922 35.487 17.7948 35.4668 17.7948V18.2948C35.5858 18.2948 35.721 18.2648 35.8247 18.1612C35.9283 18.0575 35.9583 17.9223 35.9583 17.8033H35.4583ZM35.4583 10.4255V17.8033H35.9583V10.4255H35.4583ZM35.7215 10.1755H35.7083V10.6755H35.7215V10.1755ZM35.9715 10.4255V8.1988H35.4715V10.4255H35.9715ZM35.7083 8.4488H35.7215V7.9488H35.7083V8.4488ZM35.4583 3.28924V8.1988H35.9583V3.28924H35.4583ZM38.3264 8.1988V10.4255H38.8264V8.1988H38.3264ZM47.7005 10.1755H38.5764V10.6755H47.7005V10.1755ZM47.6651 10.1573C47.6651 10.1861 47.6621 10.2027 47.6601 10.2102C47.6582 10.2172 47.6584 10.2121 47.6662 10.2023C47.6701 10.1974 47.6752 10.1924 47.6813 10.1878C47.6873 10.1833 47.6932 10.1801 47.6982 10.178C47.708 10.1739 47.7106 10.1755 47.7005 10.1755V10.6755C47.8272 10.6755 47.9618 10.6332 48.0567 10.5146C48.143 10.4068 48.1651 10.2734 48.1651 10.1573H47.6651ZM47.6651 8.46708V10.1573H48.1651V8.46708H47.6651ZM47.7005 8.4488C47.7106 8.4488 47.708 8.45042 47.6982 8.44634C47.6932 8.44427 47.6873 8.44109 47.6813 8.43653C47.6752 8.43196 47.6701 8.42692 47.6662 8.42205C47.6584 8.41225 47.6582 8.40711 47.6601 8.41413C47.6621 8.42162 47.6651 8.43822 47.6651 8.46708H48.1651C48.1651 8.35095 48.143 8.21758 48.0567 8.1097C47.9618 7.99117 47.8272 7.9488 47.7005 7.9488V8.4488ZM38.5764 8.4488H47.7005V7.9488H38.5764V8.4488Z" fill="black"/>
<path id="Vector_3" d="M27.5574 7.57812H24.8047V10.3308H27.5574V7.57812Z" fill="black"/>
<path id="Vector_4" fill-rule="evenodd" clip-rule="evenodd" d="M72.5358 15.2815C73.0187 14.2083 73.2601 12.536 73.2601 10.2646V1.33078C73.2601 1.15193 73.1797 1.0625 73.0187 1.0625H71.3553C71.1765 1.0625 71.0871 1.15193 71.0871 1.33078V10.2646C71.0871 11.1946 71.0513 11.9905 70.9797 12.6523C70.9261 13.2962 70.8009 13.8059 70.6041 14.1815C70.3359 14.8969 69.7725 15.353 68.914 15.5497C68.2671 15.7156 67.0587 15.8046 65.2889 15.8166V18.0427C66.2862 18.0331 67.1458 17.9891 67.8677 17.9106C68.7083 17.8212 69.379 17.696 69.8798 17.535C69.8977 17.535 69.9066 17.5261 69.9066 17.5082C71.1586 17.1326 72.035 16.3904 72.5358 15.2815ZM62.4341 18.0448H62.3411C61.1606 18.0448 60.1501 18 59.3095 17.9106C58.4867 17.8212 57.816 17.696 57.2974 17.535C57.2795 17.535 57.2616 17.5261 57.2437 17.5082C56.5998 17.3115 56.0633 17.0253 55.634 16.6497C55.2048 16.2741 54.856 15.818 54.5877 15.2815C54.3373 14.7449 54.1495 14.0563 54.0243 13.2157C53.917 12.3751 53.8633 11.3914 53.8633 10.2646V1.33078C53.8633 1.15193 53.9349 1.0625 54.078 1.0625H55.7681C55.9291 1.0625 56.0096 1.15193 56.0096 1.33078V10.2646C56.0096 12.0889 56.1795 13.3945 56.5193 14.1815C56.8413 14.9148 57.4315 15.3709 58.29 15.5497C58.9875 15.7286 60.3379 15.818 62.3411 15.818H62.4341V18.0448Z" fill="black"/>
<path id="Vector_5" d="M70.9797 12.6523L70.7311 12.6254L70.7306 12.6315L70.9797 12.6523ZM70.6041 14.1815L70.3827 14.0655L70.3755 14.0792L70.3701 14.0937L70.6041 14.1815ZM68.914 15.5497L68.8581 15.306L68.8519 15.3076L68.914 15.5497ZM65.2889 15.8166L65.2872 15.5666L65.0389 15.5683V15.8166H65.2889ZM65.2889 18.0427H65.0389V18.2952L65.2913 18.2927L65.2889 18.0427ZM69.8798 17.535V17.285H69.8406L69.8033 17.297L69.8798 17.535ZM69.9066 17.5082L69.8348 17.2687L69.6566 17.3222V17.5082H69.9066ZM62.4341 18.0448V18.2948H62.6841V18.0448H62.4341ZM57.2974 17.535L57.3715 17.2963L57.3353 17.285H57.2974V17.535ZM57.2437 17.5082L57.4205 17.3314L57.3764 17.2873L57.3168 17.2691L57.2437 17.5082ZM54.5877 15.2815L54.3611 15.3872L54.3641 15.3933L54.5877 15.2815ZM54.0243 13.2157L53.7763 13.2473L53.777 13.2525L54.0243 13.2157ZM56.5193 14.1815L56.2898 14.2806L56.2904 14.282L56.5193 14.1815ZM58.29 15.5497L58.3522 15.3073L58.341 15.305L58.29 15.5497ZM62.4341 15.818H62.6841V15.568H62.4341V15.818ZM73.0101 10.2646C73.0101 12.5275 72.7682 14.1558 72.3078 15.1789L72.7636 15.3843C73.269 14.2612 73.5101 12.5445 73.5101 10.2646H73.0101ZM73.0101 1.33078V10.2646H73.5101V1.33078H73.0101ZM73.0187 1.3125C73.0364 1.3125 73.0411 1.31503 73.0375 1.3137C73.0355 1.31297 73.0318 1.31133 73.0271 1.30824C73.0225 1.30511 73.0179 1.30122 73.014 1.29681C73.0056 1.28757 73.0044 1.28131 73.0056 1.28525C73.007 1.29006 73.0101 1.30402 73.0101 1.33078H73.5101C73.5101 1.20894 73.4833 1.07088 73.3856 0.962329C73.2834 0.848771 73.1449 0.8125 73.0187 0.8125V1.3125ZM71.3553 1.3125H73.0187V0.8125H71.3553V1.3125ZM71.3371 1.33078C71.3371 1.30616 71.3402 1.29479 71.341 1.29247C71.3413 1.29156 71.3409 1.293 71.3392 1.29592C71.3373 1.29893 71.3346 1.30263 71.3309 1.30635C71.3272 1.31006 71.3235 1.31279 71.3205 1.3146C71.3176 1.31635 71.3161 1.31674 71.317 1.31644C71.3193 1.31567 71.3307 1.3125 71.3553 1.3125V0.8125C71.2274 0.8125 71.0855 0.84466 70.9773 0.952794C70.8692 1.06093 70.8371 1.20282 70.8371 1.33078H71.3371ZM71.3371 10.2646V1.33078H70.8371V10.2646H71.3371ZM71.2283 12.6792C71.3011 12.0058 71.3371 11.2004 71.3371 10.2646H70.8371C70.8371 11.1889 70.8014 11.9753 70.7311 12.6254L71.2283 12.6792ZM70.8256 14.2975C71.0438 13.881 71.1738 13.3345 71.2289 12.673L70.7306 12.6315C70.6784 13.2578 70.558 13.7308 70.3827 14.0655L70.8256 14.2975ZM68.9698 15.7934C69.8956 15.5813 70.5356 15.0763 70.8382 14.2693L70.3701 14.0937C70.1361 14.7175 69.6494 15.1246 68.8581 15.306L68.9698 15.7934ZM65.2906 16.0666C67.058 16.0546 68.2955 15.9664 68.9761 15.7919L68.8519 15.3076C68.2387 15.4648 67.0595 15.5545 65.2872 15.5666L65.2906 16.0666ZM65.0389 15.8166V18.0427H65.5389V15.8166H65.0389ZM67.8412 17.662C67.1298 17.7393 66.2784 17.7832 65.2865 17.7928L65.2913 18.2927C66.294 18.2831 67.1623 18.2388 67.8947 18.1592L67.8412 17.662ZM69.8033 17.297C69.3255 17.4506 68.6737 17.5735 67.8412 17.662L67.8947 18.1592C68.7434 18.0689 69.4325 17.9414 69.9563 17.773L69.8033 17.297ZM69.6566 17.5082C69.6566 17.4786 69.6642 17.4105 69.7231 17.3515C69.7821 17.2926 69.8502 17.285 69.8798 17.285V17.785C69.9273 17.785 70.0088 17.773 70.0767 17.7051C70.1446 17.6372 70.1566 17.5557 70.1566 17.5082H69.6566ZM72.3078 15.1789C71.8392 16.2165 71.0233 16.9122 69.8348 17.2687L69.9784 17.7476C71.2939 17.353 72.2306 16.5646 72.7636 15.3843L72.3078 15.1789ZM62.4341 17.7948H62.3411V18.2948H62.4341V17.7948ZM62.3411 17.7948C61.1663 17.7948 60.1651 17.7502 59.3359 17.662L59.2825 18.1592C60.1346 18.2499 61.155 18.2948 62.3411 18.2948V17.7948ZM59.3359 17.662C58.5218 17.5735 57.869 17.4507 57.3715 17.2963L57.2233 17.7738C57.763 17.9413 58.4511 18.0688 59.2825 18.1592L59.3359 17.662ZM57.2974 17.285C57.3692 17.285 57.4111 17.3221 57.4205 17.3314L57.0669 17.685C57.1121 17.7301 57.1898 17.785 57.2974 17.785V17.285ZM57.3168 17.2691C56.7006 17.0808 56.1969 16.8101 55.7986 16.4615L55.4694 16.8378C55.9296 17.2405 56.499 17.5421 57.1706 17.7473L57.3168 17.2691ZM55.7986 16.4615C55.3951 16.1084 55.0658 15.6787 54.8113 15.1696L54.3641 15.3933C54.6461 15.9573 55.0144 16.4398 55.4694 16.8378L55.7986 16.4615ZM54.8142 15.1757C54.5774 14.6682 54.3946 14.0051 54.2716 13.1788L53.777 13.2525C53.9044 14.1075 54.0971 14.8215 54.3611 15.3872L54.8142 15.1757ZM54.2723 13.184C54.1667 12.3567 54.1133 11.384 54.1133 10.2646H53.6133C53.6133 11.3987 53.6673 12.3934 53.7763 13.2473L54.2723 13.184ZM54.1133 10.2646V1.33078H53.6133V10.2646H54.1133ZM54.1133 1.33078C54.1133 1.30192 54.1163 1.28532 54.1183 1.27782C54.1202 1.27081 54.12 1.27595 54.1122 1.28575C54.1083 1.29062 54.1033 1.29566 54.0972 1.30023C54.0911 1.30478 54.0852 1.30796 54.0802 1.31004C54.0704 1.31412 54.0678 1.3125 54.078 1.3125V0.8125C53.9513 0.8125 53.8166 0.854863 53.7218 0.973396C53.6355 1.08128 53.6133 1.21464 53.6133 1.33078H54.1133ZM54.078 1.3125H55.7681V0.8125H54.078V1.3125ZM55.7681 1.3125C55.7859 1.3125 55.7905 1.31503 55.787 1.3137C55.785 1.31297 55.7812 1.31133 55.7766 1.30824C55.7719 1.30511 55.7674 1.30121 55.7634 1.29681C55.7551 1.28756 55.7539 1.28131 55.7551 1.28524C55.7565 1.29006 55.7596 1.30402 55.7596 1.33078H56.2596C56.2596 1.20894 56.2328 1.07088 56.1351 0.962331C56.0329 0.848771 55.8944 0.8125 55.7681 0.8125V1.3125ZM55.7596 1.33078V10.2646H56.2596V1.33078H55.7596ZM55.7596 10.2646C55.7596 12.0931 55.9283 13.4433 56.2898 14.2806L56.7489 14.0824C56.4308 13.3458 56.2596 12.0847 56.2596 10.2646H55.7596ZM56.2904 14.282C56.6483 15.0972 57.3101 15.601 58.239 15.7945L58.341 15.305C57.5529 15.1408 57.0342 14.7324 56.7482 14.081L56.2904 14.282ZM58.2279 15.7919C58.9605 15.9797 60.3416 16.068 62.3411 16.068V15.568C60.3342 15.568 59.0147 15.4771 58.3522 15.3073L58.2279 15.7919ZM62.3411 16.068H62.4341V15.568H62.3411V16.068ZM62.6841 18.0448V15.818H62.1841V18.0448H62.6841Z" fill="black"/>
<path id="Vector_6" fill-rule="evenodd" clip-rule="evenodd" d="M95.073 18.0448H97.0225C97.1835 18.0448 97.264 17.9643 97.264 17.8033V1.33078C97.264 1.15193 97.1835 1.0625 97.0225 1.0625H95.3324C95.1535 1.0625 95.0641 1.15193 95.0641 1.33078V11.4135H95.073V18.0448ZM92.2181 15.3445V12.0833L83.045 1.16981C82.9735 1.09827 82.9109 1.0625 82.8572 1.0625H79.1281C78.9671 1.0625 78.8867 1.15193 78.8867 1.33078V17.8033C78.8867 17.9643 78.9671 18.0448 79.1281 18.0448H80.8183C80.9793 18.0448 81.0597 17.9643 81.0597 17.8033V2.85999H81.5963L92.2181 15.3445Z" fill="black"/>
<path id="Vector_7" d="M95.073 18.0448H94.823V18.2948H95.073V18.0448ZM95.0641 11.4135H94.8141V11.6635H95.0641V11.4135ZM95.073 11.4135H95.323V11.1635H95.073V11.4135ZM92.2181 15.3445L92.0277 15.5065L92.4681 16.0241V15.3445H92.2181ZM92.2181 12.0833H92.4681V11.9922L92.4095 11.9224L92.2181 12.0833ZM83.045 1.16981L83.2364 1.00896L83.2294 1.00068L83.2218 0.993037L83.045 1.16981ZM81.0597 2.85999V2.60999H80.8097V2.85999H81.0597ZM81.5963 2.85999L81.7867 2.69799L81.7118 2.60999H81.5963V2.85999ZM97.0225 17.7948H95.073V18.2948H97.0225V17.7948ZM97.014 17.8033C97.014 17.8235 97.0114 17.8309 97.0117 17.8299C97.012 17.8291 97.0131 17.8261 97.0156 17.8218C97.0183 17.8174 97.022 17.8125 97.0268 17.8076C97.0317 17.8028 97.0366 17.7991 97.041 17.7964C97.0454 17.7938 97.0483 17.7928 97.0491 17.7925C97.0501 17.7922 97.0427 17.7948 97.0225 17.7948V18.2948C97.1416 18.2948 97.2767 18.2648 97.3804 18.1612C97.4841 18.0575 97.514 17.9223 97.514 17.8033H97.014ZM97.014 1.33078V17.8033H97.514V1.33078H97.014ZM97.0225 1.3125C97.0403 1.3125 97.0449 1.31503 97.0413 1.3137C97.0393 1.31297 97.0356 1.31132 97.031 1.30824C97.0263 1.30511 97.0218 1.30121 97.0178 1.29681C97.0095 1.28756 97.0082 1.2813 97.0094 1.28524C97.0109 1.29006 97.014 1.30402 97.014 1.33078H97.514C97.514 1.20895 97.4871 1.07088 97.3894 0.962333C97.2872 0.848772 97.1488 0.8125 97.0225 0.8125V1.3125ZM95.3324 1.3125H97.0225V0.8125H95.3324V1.3125ZM95.3141 1.33078C95.3141 1.30616 95.3172 1.29479 95.318 1.29247C95.3183 1.29156 95.3179 1.293 95.3162 1.29592C95.3144 1.29893 95.3116 1.30263 95.3079 1.30635C95.3042 1.31006 95.3005 1.31279 95.2975 1.3146C95.2946 1.31635 95.2931 1.31674 95.294 1.31644C95.2964 1.31567 95.3077 1.3125 95.3324 1.3125V0.8125C95.2044 0.8125 95.0625 0.84466 94.9544 0.952794C94.8462 1.06093 94.8141 1.20282 94.8141 1.33078H95.3141ZM95.3141 11.4135V1.33078H94.8141V11.4135H95.3141ZM95.0641 11.6635H95.073V11.1635H95.0641V11.6635ZM94.823 11.4135V18.0448H95.323V11.4135H94.823ZM92.4681 15.3445V12.0833H91.9681V15.3445H92.4681ZM82.8537 1.33067L92.0267 12.2442L92.4095 11.9224L83.2364 1.00896L82.8537 1.33067ZM82.8572 1.3125C82.8281 1.3125 82.8144 1.30294 82.8204 1.30639C82.8229 1.30782 82.8284 1.31129 82.8369 1.31808C82.8453 1.32483 82.8558 1.33411 82.8683 1.34659L83.2218 0.993037C83.1405 0.9117 83.0157 0.8125 82.8572 0.8125V1.3125ZM79.1281 1.3125H82.8572V0.8125H79.1281V1.3125ZM79.1367 1.33078C79.1367 1.30402 79.1398 1.29006 79.1412 1.28525C79.1424 1.28131 79.1412 1.28757 79.1328 1.29681C79.1289 1.30122 79.1243 1.30511 79.1196 1.30824C79.115 1.31133 79.1113 1.31297 79.1093 1.3137C79.1057 1.31503 79.1104 1.3125 79.1281 1.3125V0.8125C79.0019 0.8125 78.8634 0.848771 78.7612 0.962328C78.6635 1.07088 78.6367 1.20894 78.6367 1.33078H79.1367ZM79.1367 17.8033V1.33078H78.6367V17.8033H79.1367ZM79.1281 17.7948C79.108 17.7948 79.1005 17.7922 79.1015 17.7925C79.1023 17.7927 79.1053 17.7938 79.1096 17.7964C79.114 17.7991 79.119 17.8028 79.1238 17.8076C79.1286 17.8124 79.1323 17.8174 79.135 17.8218C79.1376 17.8261 79.1387 17.8291 79.1389 17.8299C79.1393 17.8309 79.1367 17.8235 79.1367 17.8033H78.6367C78.6367 17.9223 78.6666 18.0575 78.7702 18.1612C78.8739 18.2648 79.0091 18.2948 79.1281 18.2948V17.7948ZM80.8183 17.7948H79.1281V18.2948H80.8183V17.7948ZM80.8097 17.8033C80.8097 17.8235 80.8071 17.8309 80.8075 17.8299C80.8077 17.8291 80.8088 17.8261 80.8114 17.8218C80.8141 17.8174 80.8178 17.8124 80.8226 17.8076C80.8274 17.8028 80.8324 17.7991 80.8368 17.7964C80.8411 17.7938 80.8441 17.7927 80.8449 17.7925C80.8459 17.7922 80.8384 17.7948 80.8183 17.7948V18.2948C80.9373 18.2948 81.0725 18.2648 81.1762 18.1612C81.2798 18.0575 81.3097 17.9223 81.3097 17.8033H80.8097ZM80.8097 2.85999V17.8033H81.3097V2.85999H80.8097ZM81.5963 2.60999H81.0597V3.10999H81.5963V2.60999ZM92.4085 15.1825L81.7867 2.69799L81.4059 3.02199L92.0277 15.5065L92.4085 15.1825Z" fill="black"/>
<path id="Vector_8" fill-rule="evenodd" clip-rule="evenodd" d="M10.4762 6.72675L9.55565 5.81383L9.56487 5.80454L4.77895 0.961421C4.75618 0.927708 4.72578 0.894738 4.68552 0.867901C4.62661 0.828626 4.56153 0.8125 4.4999 0.8125H2.05853C1.93057 0.8125 1.78868 0.84466 1.68054 0.952794C1.57241 1.06093 1.54025 1.20282 1.54025 1.33078V1.41127C1.54025 1.4729 1.55638 1.53798 1.59565 1.59689C1.62209 1.63655 1.65449 1.66665 1.68768 1.6893L9.00596 9.08599L0.914279 17.4404C0.851804 17.5034 0.789062 17.5985 0.789062 17.7228V17.8033C0.789062 17.9155 0.813366 18.0464 0.905866 18.1505C1.00335 18.2602 1.13548 18.2948 1.25369 18.2948H3.58774C3.72992 18.2948 3.85493 18.2384 3.95232 18.141L3.95348 18.1399L11.0181 10.9812L18.467 18.4561C18.4802 18.4856 18.4993 18.5154 18.5267 18.5428C18.5991 18.6152 18.6873 18.6295 18.7438 18.6295H21.1046C21.2229 18.6295 21.355 18.5949 21.4525 18.4852C21.545 18.3811 21.5693 18.2503 21.5693 18.138V18.0575C21.5693 17.9326 21.5059 17.8373 21.4432 17.7742L21.4424 17.7735L14.1035 10.3173L14.1002 10.3207L11.3213 7.56477L11.3129 7.5734L10.4762 6.72675ZM18.1018 0.8125C18.044 0.8125 17.9782 0.817843 17.9155 0.838743C17.8627 0.856326 17.7945 0.891388 17.7448 0.959189L12.9631 5.87644L14.842 7.7398L20.7009 1.68832C20.7336 1.66578 20.7654 1.63598 20.7915 1.59689C20.8307 1.53797 20.8469 1.47289 20.8469 1.41127V1.33078C20.8469 1.21464 20.8247 1.08128 20.7384 0.973395C20.6436 0.854863 20.509 0.8125 20.3822 0.8125H18.1018Z" fill="url(#paint0_linear_11692_11324)"/>
</g>
<defs>
<linearGradient id="paint0_linear_11692_11324" x1="21.5693" y1="14.2982" x2="3.49068" y2="3.36164" gradientUnits="userSpaceOnUse">
<stop stop-color="#9B5EE7"/>
<stop offset="0.275942" stop-color="#8E53D9"/>
<stop offset="1" stop-color="#2D3AF7"/>
</linearGradient>
<clipPath id="clip0_11692_11324">
<rect width="103" height="19" fill="white" transform="translate(0.0390625 0.0625)"/>
</clipPath>
</defs>
</svg>
